HIERARCHY
ROOT joint_0
{
	OFFSET 0.000000 0.000000 0.000000
	CHANNELS 6 Xposition Yposition Zposition Zrotation Yrotation Xrotation 
	JOINT joint_1
	{
		OFFSET 10.084412 4.114712 95.061035
		CHANNELS 3 Zrotation Yrotation Xrotation
		JOINT joint_2
		{
			OFFSET -1.615463 4.243484 87.329956
			CHANNELS 3 Zrotation Yrotation Xrotation
			JOINT joint_3
			{
				OFFSET -3.579636 4.638191 87.154053
				CHANNELS 3 Zrotation Yrotation Xrotation
				JOINT joint_4
				{
					OFFSET 5.443451 7.217075 123.562988
					CHANNELS 3 Zrotation Yrotation Xrotation
					JOINT joint_5
					{
						OFFSET 21.688065 15.141808 90.458008
						CHANNELS 3 Zrotation Yrotation Xrotation
						End Site
						{
							OFFSET 0.000000 0.000000 0.000000
						}
					}
				}
				JOINT joint_6
				{
					OFFSET 3.611374 -22.863556 70.791992
					CHANNELS 3 Zrotation Yrotation Xrotation
					JOINT joint_7
					{
						OFFSET 3.493607 -153.029137 -12.665039
						CHANNELS 3 Zrotation Yrotation Xrotation
						JOINT joint_8
						{
							OFFSET -14.929443 -32.628616 -254.032959
							CHANNELS 3 Zrotation Yrotation Xrotation
							JOINT joint_9
							{
								OFFSET 11.589401 -3.548126 -242.255005
								CHANNELS 3 Zrotation Yrotation Xrotation
								End Site
								{
									OFFSET 0.000000 0.000000 0.000000
								}
							}
						}
					}
				}
				JOINT joint_10
				{
					OFFSET 2.651962 30.943008 67.690918
					CHANNELS 3 Zrotation Yrotation Xrotation
					JOINT joint_11
					{
						OFFSET -6.172562 150.392159 -30.576904
						CHANNELS 3 Zrotation Yrotation Xrotation
						JOINT joint_12
						{
							OFFSET 15.363358 20.741959 -255.254028
							CHANNELS 3 Zrotation Yrotation Xrotation
							JOINT joint_13
							{
								OFFSET 23.282578 -11.086121 -241.182983
								CHANNELS 3 Zrotation Yrotation Xrotation
								End Site
								{
									OFFSET 0.000000 0.000000 0.000000
								}
							}
						}
					}
				}
			}
		}
	}
	JOINT joint_14
	{
		OFFSET -7.080551 -92.910816 -106.291992
		CHANNELS 3 Zrotation Yrotation Xrotation
		JOINT joint_15
		{
			OFFSET -38.248322 -6.001282 -411.906006
			CHANNELS 3 Zrotation Yrotation Xrotation
			JOINT joint_16
			{
				OFFSET -11.189407 -11.244659 -448.150986
				CHANNELS 3 Zrotation Yrotation Xrotation
				JOINT joint_17
				{
					OFFSET 169.870491 -24.631378 -80.352999
					CHANNELS 3 Zrotation Yrotation Xrotation
					End Site
					{
						OFFSET 0.000000 0.000000 0.000000
					}
				}
			}
		}
	}
	JOINT joint_18
	{
		OFFSET -2.796600 85.817772 -112.273987
		CHANNELS 3 Zrotation Yrotation Xrotation
		JOINT joint_19
		{
			OFFSET -44.395859 -8.174402 -411.255005
			CHANNELS 3 Zrotation Yrotation Xrotation
			JOINT joint_20
			{
				OFFSET -25.617508 -5.555587 -447.666992
				CHANNELS 3 Zrotation Yrotation Xrotation
				JOINT joint_21
				{
					OFFSET 163.870811 53.215703 -78.867000
					CHANNELS 3 Zrotation Yrotation Xrotation
					End Site
					{
						OFFSET 0.000000 0.000000 0.000000
					}
				}
			}
		}
	}
}
MOTION
Frames: 5
Frame Time: 0.016667
-295.179871 -71.102310 1072.904053 -5.406940 7.991183 9.368353 0.595838 -4.608856 -0.230547 -1.388070 0.939544 -0.034433 -1.419288 -1.129937 0.070355 -0.624474 -4.428088 9.915637 0.000000 0.000000 0.000000 -1.577820 -34.524010 -2.697458 -39.198162 -16.967446 -17.962139 -70.754572 -57.258862 151.884969 0.000000 0.000000 0.000000 0.065589 -27.790552 6.903274 28.917673 -8.385829 20.032431 28.345493 4.407920 -120.524663 0.000000 0.000000 0.000000 1.323531 -6.880649 -17.395578 -2.857165 12.911677 -0.416763 -3.295913 -1.763765 -1.662496 0.000000 0.000000 0.000000 1.484651 -22.467402 10.963355 -1.189841 33.576591 -6.694891 -3.477282 3.771898 -2.814679 0.000000 0.000000 0.000000 
-284.558960 -65.485397 1071.813965 -6.015484 8.203103 9.319738 0.366897 -4.669534 -0.107723 -1.371304 0.952117 -0.055968 -1.318806 -1.115692 0.099148 -0.540155 -4.413207 9.886773 0.000000 0.000000 0.000000 -2.524036 -49.455436 -1.561936 -70.394540 -26.203891 -20.318576 -132.077218 -41.215822 -131.607709 0.000000 0.000000 0.000000 0.143227 -29.216869 6.840302 27.285376 -7.486498 19.825925 26.848617 6.982393 -120.819340 0.000000 0.000000 0.000000 1.377637 -6.544705 -17.827180 -2.648523 12.725821 -0.447406 -3.035697 -1.505190 -1.509086 0.000000 0.000000 0.000000 1.051132 -22.109434 10.921980 -1.386359 27.483870 -5.412773 -3.347125 4.442803 -2.967917 0.000000 0.000000 0.000000 
-273.615448 -59.405926 1070.302002 -6.786698 8.495694 9.362999 0.198310 -4.853001 -0.121070 -1.371464 0.950454 -0.047864 -1.177295 -1.100708 0.128692 -0.451091 -4.291754 9.867190 0.000000 0.000000 0.000000 -9.362258 -76.048705 5.428241 -76.763172 -35.356512 -39.975032 74.936028 34.798018 137.187085 0.000000 0.000000 0.000000 0.169424 -30.992610 6.880921 25.423770 -6.328514 19.681997 25.165287 10.133015 -121.156448 0.000000 0.000000 0.000000 1.460394 -6.100461 -18.369945 -2.489463 12.150259 -0.530859 -2.822878 -1.247491 -1.375445 0.000000 0.000000 0.000000 -0.161767 -21.351354 10.952271 -2.466739 20.740118 -4.528188 -4.113203 5.644719 -3.716178 0.000000 0.000000 0.000000 
-262.642334 -52.431942 1068.197021 -7.848282 8.665041 9.262612 0.130263 -4.810809 0.117282 -1.253826 0.867529 -0.135856 -1.104214 -1.076619 0.158829 -0.467459 -4.174874 9.815590 0.000000 0.000000 0.000000 -2.080855 -43.426547 -1.746218 -73.767138 -28.428859 -13.690544 42.574834 33.233844 130.264507 0.000000 0.000000 0.000000 0.082352 -31.614244 6.921996 22.568196 -5.805593 19.305193 23.084720 15.347144 -122.318138 0.000000 0.000000 0.000000 1.701632 -5.713638 -18.881921 -2.253550 11.881878 -0.604355 -2.566194 -1.109269 -1.238958 0.000000 0.000000 0.000000 -1.483111 -20.460670 10.989552 -3.841242 14.598663 -3.405921 -4.976041 7.191694 -4.640704 0.000000 0.000000 0.000000 
-251.955246 -44.195576 1065.347046 -8.996095 8.679031 9.098248 0.008064 -4.576608 0.493221 -1.183671 0.796139 -0.247669 -0.978669 -1.041031 0.191419 -0.369517 -4.158361 9.771258 0.000000 0.000000 0.000000 -0.953421 -23.427501 -2.679058 -22.282923 -19.031033 -17.216544 -64.050161 -42.761678 126.102583 0.000000 0.000000 0.000000 0.074777 -32.680335 6.910693 19.348114 -5.054367 19.148559 20.499994 20.763697 -123.922509 0.000000 0.000000 0.000000 2.135179 -5.543641 -19.476935 -1.932655 12.349278 -0.646239 -2.267746 -1.251342 -1.124752 0.000000 0.000000 0.000000 -2.543271 -20.075019 10.801514 -5.107691 10.202684 -2.243590 -5.763856 8.101376 -5.310959 0.000000 0.000000 0.000000 
